<svg height="128" width="128" xmlns="http://www.w3.org/2000/svg"><linearGradient id="b" gradientUnits="userSpaceOnUse" x1="44" x2="84" y1="68" y2="68"><stop offset="0" stop-color="#241f31"/><stop offset=".1" stop-color="#5e5c64"/><stop offset=".2" stop-color="#241f31"/><stop offset=".8" stop-color="#241f31"/><stop offset=".9" stop-color="#5e5c64"/><stop offset="1" stop-color="#241f31"/></linearGradient><linearGradient id="c" gradientUnits="userSpaceOnUse" x1="60" x2="68" y1="64" y2="64"><stop offset="0" stop-color="#9a9996"/><stop offset=".5" stop-color="#5e5c64"/><stop offset="1" stop-color="#9a9996"/></linearGradient><linearGradient id="d" gradientUnits="userSpaceOnUse" x1="48" x2="80" y1="54" y2="54"><stop offset="0" stop-color="#3d3846"/><stop offset=".125" stop-color="#9a9996"/><stop offset=".25" stop-color="#5e5c64"/><stop offset=".75" stop-color="#5e5c64"/><stop offset=".875" stop-color="#9a9996"/><stop offset="1" stop-color="#3d3846"/></linearGradient><linearGradient id="a" gradientUnits="userSpaceOnUse" x1="2" x2="30" y1="26" y2="26"><stop offset="0" stop-color="#5e5c64"/><stop offset=".036" stop-color="#9a9996"/><stop offset=".071" stop-color="#5e5c64"/><stop offset=".929" stop-color="#5e5c64"/><stop offset=".964" stop-color="#9a9996"/><stop offset="1" stop-color="#5e5c64"/></linearGradient><g transform="scale(4)"><g fill="#5e5c64"><rect height="6" ry="1" width="28" x="2" y="6"/><rect height="6" ry="1" width="28" x="2" y="12"/><rect height="6" ry="1.059" width="28" x="2" y="18"/></g><rect fill="url(#a)" height="5" ry="1" width="28" x="2" y="23"/><g fill="#9a9996"><rect height="5" ry="1" width="28" x="2" y="3"/><rect height="5" ry="1" width="28" x="2" y="9"/><rect height="5" ry="1" width="28" x="2" y="15"/><rect height="5" ry="1" width="28" x="2" y="21"/></g><path d="M14 4h15v3H14zm0 6h15v3H14zm0 6h15v3H14zm0 6h15v3H14z" fill="#3d3846"/><g fill="#5e5c64"><path d="M14 5h15v2H14zm0 6h15v2H14zm0 6h15v2H14zm0 6h15v2H14z"/><rect height="2" ry=".5" width="1" x="4" y="4"/><rect height="2" ry=".5" width="1" x="6" y="4"/><rect height="2" ry=".5" width="1" x="4" y="10"/><rect height="2" ry=".5" width="1" x="6" y="10"/><rect height="2" ry=".5" width="1" x="4" y="16"/><rect height="2" ry=".5" width="1" x="6" y="16"/><rect height="2" ry=".5" width="1" x="4" y="22"/><rect height="2" ry=".5" width="1" x="6" y="22"/></g><rect fill="#e01b24" height="1" ry=".5" width="1" x="6" y="11"/><rect fill="#e01b24" height="1" ry=".5" width="1" x="4" y="17"/><g fill="#f6d32d"><rect height="1" ry=".5" width="1" x="4" y="5"/><rect height="1" ry=".5" width="1" x="6" y="17"/><rect height="1" ry=".5" width="1" x="4" y="23"/></g><g fill="#33d17a"><rect height="1" ry=".5" width="1" x="6" y="5"/><rect height="1" ry=".5" width="1" x="4" y="11"/><rect height="1" ry=".5" width="1" x="6" y="23"/></g><path d="M15 11h1v2h-1zm2 0h1v2h-1zm2 0h1v2h-1zm2 0h1v2h-1zm2 0h1v2h-1zm2 0h1v2h-1zm2 0h1v2h-1zM15 5h1v2h-1zm2 0h1v2h-1zm2 0h1v2h-1zm2 0h1v2h-1zm2 0h1v2h-1zm2 0h1v2h-1zm2 0h1v2h-1zM15 17h1v2h-1zm2 0h1v2h-1zm2 0h1v2h-1zm2 0h1v2h-1zm2 0h1v2h-1zm2 0h1v2h-1zm2 0h1v2h-1zm-12 6h1v2h-1zm2 0h1v2h-1zm2 0h1v2h-1zm2 0h1v2h-1zm2 0h1v2h-1zm2 0h1v2h-1zm2 0h1v2h-1z" fill="#3d3846"/><path d="M15 10h1v1h-1zm2 0h1v1h-1zm2 0h1v1h-1zm2 0h1v1h-1zm2 0h1v1h-1zm2 0h1v1h-1zm2 0h1v1h-1zM15 4h1v1h-1zm2 0h1v1h-1zm2 0h1v1h-1zm2 0h1v1h-1zm2 0h1v1h-1zm2 0h1v1h-1zm2 0h1v1h-1zM15 16h1v1h-1zm2 0h1v1h-1zm2 0h1v1h-1zm2 0h1v1h-1zm2 0h1v1h-1zm2 0h1v1h-1zm2 0h1v1h-1zm-12 6h1v1h-1zm2 0h1v1h-1zm2 0h1v1h-1zm2 0h1v1h-1zm2 0h1v1h-1zm2 0h1v1h-1zm2 0h1v1h-1z" fill="#241f31"/></g><path d="M48 40c-2.216 0-4 1.784-4 4v48c0 2.216 1.784 4 4 4h32c2.216 0 4-1.784 4-4V44c0-2.216-1.784-4-4-4zm16 8c8.864 0 16 7.136 16 16s-7.136 16-16 16H52c-2.216 0-4-1.784-4-4V64c0-8.864 7.136-16 16-16z" fill="url(#b)"/><path d="M64 44c-8.864 0-16 7.136-16 16v12c0 2.216 1.784 4 4 4h12c8.864 0 16-7.136 16-16s-7.136-16-16-16z" fill="#3d3846"/><g stroke-width="4"><path d="M60 60v4c0 2.216 1.784 4 4 4s4-1.784 4-4v-4h-4z" fill="url(#c)"/><path d="M64 56c-2.216 0-4 1.784-4 4s1.784 4 4 4 4-1.784 4-4-1.784-4-4-4z" fill="#c0bfbc"/><path d="M48 36c-2.216 0-4 1.784-4 4v48c0 2.216 1.784 4 4 4h32c2.216 0 4-1.784 4-4V40c0-2.216-1.784-4-4-4zm16 8c8.864 0 16 7.136 16 16s-7.136 16-16 16H52c-2.216 0-4-1.784-4-4V60c0-8.864 7.136-16 16-16z" fill="#deddda"/></g><path d="M64 44c-8.864 0-16 7.136-16 16v4c0-8.864 7.136-16 16-16a15.952 15.952 0 0 1 15.863 14c.082-.656.137-1.32.137-2 0-8.864-7.136-16-16-16z" fill="url(#d)"/></svg>